<svg xmlns="http://www.w3.org/2000/svg" width="60" height="72" viewBox="-298.5 419.5 60 72"><path fill="#fff" d="M-239.5 449.053c0-15.906-12.813-28.553-29-28.553-16.19 0-29 12.646-29 28.553 0 15.91 12.81 28.557 29 28.557 16.187 0 29-12.647 29-28.557z"/><path fill="#00D66C" d="M-255.686 453.244h-1.633c-1.626 0-2.325.86-2.56 2.523-.407 3.04-2.853 5.104-6.055 5.104-3.725 0-6.113-2.694-6.113-6.596V445.1c0-.363-.048-.688-.14-.98.352.152.77.236 1.246.236h8.56c1.632 0 2.563-.92 2.563-2.524v-.745c0-1.607-.93-2.523-2.562-2.523h-4.83V433.4c0-1.605-.934-2.522-2.563-2.522h-1.166c-1.63 0-2.56.917-2.56 2.522v8.43c0 .365.05.69.142.98a3.121 3.121 0 0 0-1.25-.235h-8.557c-1.63 0-2.562.92-2.562 2.524v.743c0 1.606.93 2.524 2.562 2.524h4.833v5.905c0 7.398 4.832 12.56 12.4 12.56 7.042 0 11.7-4.412 12.575-11.065.234-1.663-.873-2.523-2.33-2.523z"/><path fill="#fff" d="M-291.86 490.37h1.577v-3.375c0-1.222.674-1.644 1.482-1.644.467 0 .816.14 1.135.407l.713-1.24a2.35 2.35 0 0 0-1.568-.58c-.75 0-1.482.34-1.857 1.006l-.103-.88h-1.38v6.307zm44.458-7.802c0-.6-.47-.906-.938-.906-.462 0-.927.307-.927.906 0 .61.465.906.927.906.468.003.938-.294.938-.906zm-47.34-.312l-1.575.164v1.646h-1.183v1.342h1.183v2.818c0 1.517.88 2.22 2.206 2.22.562 0 1.04-.132 1.378-.316l-.422-1.256c-.225.1-.507.176-.77.176-.526 0-.816-.297-.816-.897v-2.743h1.764v-1.343h-1.765v-1.81zm14.66 1.808h-1.417l-.103.88c-.355-.583-1.06-1.007-2.16-1.007-1.754 0-3.275 1.08-3.275 3.278 0 2.202 1.52 3.283 3.276 3.283 1.1 0 1.803-.427 2.16-1.01l.103.88h1.42v-6.304zm30.954 0v6.306h1.573v-6.306h-1.573zm-34.415 5.084c-1.082 0-1.887-.71-1.887-1.933 0-1.22.805-1.933 1.887-1.933 1.078 0 1.885.712 1.885 1.933 0 1.223-.808 1.933-1.885 1.933zm25.753-5.084h-1.42l-.103.88c-.357-.583-1.062-1.007-2.16-1.007-1.754 0-3.274 1.08-3.274 3.278 0 2.202 1.52 3.283 3.274 3.283 1.1 0 1.803-.427 2.16-1.01l.104.88h1.42v-6.304zm-3.465 5.084c-1.08 0-1.888-.71-1.888-1.933 0-1.22.808-1.933 1.888-1.933 1.08 0 1.885.712 1.885 1.933 0 1.223-.806 1.933-1.885 1.933zm21.755-5.084h-1.418l-.104.88c-.357-.583-1.062-1.007-2.16-1.007-1.752 0-3.274 1.08-3.274 3.278 0 2.202 1.522 3.283 3.274 3.283 1.1 0 1.803-.427 2.16-1.01l.104.88h1.418v-6.304zm-3.466 5.084c-1.077 0-1.884-.71-1.884-1.933 0-1.22.807-1.933 1.884-1.933 1.08 0 1.886.712 1.886 1.933 0 1.223-.805 1.933-1.886 1.933zm-9.663 1.222l2.73-6.306h-1.643l-1.866 4.648-1.866-4.648h-1.748l2.73 6.306h1.665zm-25.95 0h1.576v-3.384c0-1.063.694-1.666 1.615-1.666.922 0 1.548.603 1.548 1.666v3.384h1.578v-3.616c0-1.875-1.183-2.816-2.694-2.816-1.004 0-1.746.416-2.102 1.008l-.104-.88h-1.417v6.304zm10.295.13c1.982 0 2.814-.89 2.814-2.004 0-1.418-1.353-1.77-2.44-1.906-.628-.084-1.595-.14-1.595-.75 0-.45.546-.647 1.22-.647.61 0 1.223.158 1.717.58l.8-1.034c-.704-.602-1.522-.803-2.44-.803-1.37 0-2.89.46-2.89 1.975 0 1.398 1.276 1.768 2.44 1.915.666.086 1.597.147 1.597.75 0 .442-.51.645-1.168.645-.74 0-1.716-.27-2.308-.88l-.797 1.038c.805.878 2.015 1.12 3.048 1.12z"/></svg>